<svg xmlns="http://www.w3.org/2000/svg" xmlns:xlink="http://www.w3.org/1999/xlink" width="1366" zoomAndPan="magnify" viewBox="0 0 1024.5 576" height="768" preserveAspectRatio="xMidYMid meet" version="1.0"><defs><filter x="0%" y="0%" width="100%" height="100%" id="ede60f75f6"><feColorMatrix values="0 0 0 0 1 0 0 0 0 1 0 0 0 0 1 0 0 0 1 0" color-interpolation-filters="sRGB"/></filter><g/><clipPath id="6e839d2451"><path d="M 0.261719 0.984375 L 175 0.984375 L 175 261.496094 L 0.261719 261.496094 Z M 0.261719 0.984375 " clip-rule="nonzero"/></clipPath><mask id="3d3ea1fc37"><g filter="url(#ede60f75f6)"><rect x="-266.39" width="1475.28" fill="#000000" y="-283.72" height="829.44" fill-opacity="0.8"/></g></mask><clipPath id="1bfdce4f57"><path d="M 1 0.988281 L 174.621094 0.988281 L 174.621094 260.910156 L 1 260.910156 Z M 1 0.988281 " clip-rule="nonzero"/></clipPath><clipPath id="7400b7337a"><rect x="0" width="175" y="0" height="262"/></clipPath><clipPath id="08673eb43f"><path d="M 173 0.285156 L 210 0.285156 L 210 131 L 173 131 Z M 173 0.285156 " clip-rule="nonzero"/></clipPath><clipPath id="1cbf604b18"><rect x="0" width="492" y="0" height="174"/></clipPath><clipPath id="8107fe5583"><path d="M 719 39 L 941.800781 39 L 941.800781 222 L 719 222 Z M 719 39 " clip-rule="nonzero"/></clipPath><clipPath id="f5dbfa7a95"><path d="M 0.1875 40 L 104 40 L 104 179 L 0.1875 179 Z M 0.1875 40 " clip-rule="nonzero"/></clipPath><clipPath id="e703dfa9d7"><rect x="0" width="223" y="0" height="183"/></clipPath><clipPath id="2fa51f7852"><rect x="0" width="942" y="0" height="262"/></clipPath></defs><g transform="matrix(1, 0, 0, 1, 41, 157)"><g clip-path="url(#2fa51f7852)"><g clip-path="url(#6e839d2451)"><g mask="url(#3d3ea1fc37)"><g transform="matrix(1, 0, 0, 1, 0, -0.000000000000056843)"><g clip-path="url(#7400b7337a)"><g clip-path="url(#1bfdce4f57)"><path fill="#ff4500" d="M 87.757812 0.988281 C 39.890625 0.988281 1.089844 39.789062 1.089844 87.65625 C 1.089844 103.902344 5.558594 119.097656 13.335938 132.09375 L 87.753906 261 L 162.230469 132.003906 C 169.96875 119.03125 174.421875 103.863281 174.421875 87.65625 C 174.425781 39.789062 135.625 0.988281 87.757812 0.988281 Z M 87.757812 116.660156 C 71.742188 116.660156 58.753906 103.671875 58.757812 87.65625 C 58.757812 71.640625 71.742188 58.652344 87.757812 58.652344 C 103.777344 58.652344 116.761719 71.640625 116.761719 87.65625 C 116.761719 103.675781 103.777344 116.660156 87.757812 116.660156 Z M 87.757812 116.660156 " fill-opacity="1" fill-rule="nonzero"/></g></g></g></g></g><g transform="matrix(1, 0, 0, 1, 220, 41)"><g clip-path="url(#1cbf604b18)"><g fill="#000000" fill-opacity="1"><g transform="translate(0.474312, 130.602916)"><g><path d="M 8.421875 0 L 8.421875 -120.03125 L 42.140625 -120.03125 L 42.140625 0 Z M 8.421875 0 "/></g></g></g><g fill="#000000" fill-opacity="1"><g transform="translate(51.047416, 130.602916)"><g><path d="M 69.28125 3.03125 C 56.132812 3.03125 45.878906 0.0820312 38.515625 -5.8125 C 31.160156 -11.71875 27.425781 -19.894531 27.3125 -30.34375 L 27.3125 -66.75 L 0.84375 -66.75 L 0.84375 -86.3125 L 27.140625 -86.3125 L 27.140625 -110.921875 L 58.15625 -116.484375 L 58.15625 -86.3125 L 112.109375 -86.3125 L 112.109375 -66.75 L 58.15625 -66.75 L 58.15625 -36.578125 C 58.039062 -30.734375 59.554688 -26.265625 62.703125 -23.171875 C 65.859375 -20.085938 70.691406 -18.546875 77.203125 -18.546875 C 83.160156 -18.546875 88.5 -19.835938 93.21875 -22.421875 C 97.9375 -25.003906 102.207031 -28.65625 106.03125 -33.375 L 115.140625 -16.515625 C 109.628906 -10.109375 103.109375 -5.25 95.578125 -1.9375 C 88.054688 1.375 79.289062 3.03125 69.28125 3.03125 Z M 69.28125 3.03125 "/></g></g></g><g clip-path="url(#08673eb43f)"><g fill="#000000" fill-opacity="1"><g transform="translate(168.376999, 130.602916)"><g><path d="M 23.09375 -98.109375 C 17.925781 -98.109375 13.679688 -99.597656 10.359375 -102.578125 C 7.046875 -105.554688 5.390625 -109.40625 5.390625 -114.125 C 5.390625 -118.84375 7.046875 -122.691406 10.359375 -125.671875 C 13.679688 -128.648438 17.925781 -130.140625 23.09375 -130.140625 C 28.375 -130.140625 32.671875 -128.648438 35.984375 -125.671875 C 39.304688 -122.691406 40.96875 -118.84375 40.96875 -114.125 C 40.96875 -109.40625 39.304688 -105.554688 35.984375 -102.578125 C 32.671875 -99.597656 28.375 -98.109375 23.09375 -98.109375 Z M 7.75 0 L 7.75 -86.3125 L 38.609375 -86.3125 L 38.609375 0 Z M 7.75 0 "/></g></g></g></g><g fill="#000000" fill-opacity="1"><g transform="translate(214.735678, 130.602916)"><g><path d="M 84.453125 -89.34375 C 93.898438 -89.34375 102.078125 -87.6875 108.984375 -84.375 C 115.898438 -81.0625 121.238281 -76.34375 125 -70.21875 C 128.757812 -64.09375 130.585938 -56.757812 130.484375 -48.21875 L 130.484375 0 L 99.625 0 L 99.625 -45.015625 C 99.625 -52.992188 97.179688 -59.226562 92.296875 -63.71875 C 87.410156 -68.21875 80.472656 -70.46875 71.484375 -70.46875 C 60.910156 -70.46875 52.585938 -67.710938 46.515625 -62.203125 C 40.453125 -56.691406 37.421875 -48.992188 37.421875 -39.109375 L 37.421875 0 L 6.75 0 L 6.75 -86.3125 L 33.546875 -86.3125 L 36.75 -64.90625 L 36.921875 -64.90625 C 40.847656 -72.4375 46.941406 -78.390625 55.203125 -82.765625 C 63.460938 -87.148438 73.210938 -89.34375 84.453125 -89.34375 Z M 84.453125 -89.34375 "/></g></g></g><g fill="#000000" fill-opacity="1"><g transform="translate(350.777311, 130.602916)"><g><path d="M 75.859375 3.03125 C 61.804688 3.03125 49.382812 1.09375 38.59375 -2.78125 C 27.8125 -6.65625 19.382812 -12.101562 13.3125 -19.125 C 7.25 -26.15625 4.21875 -34.28125 4.21875 -43.5 C 4.21875 -52.488281 7 -60.410156 12.5625 -67.265625 C 18.125 -74.117188 25.847656 -79.507812 35.734375 -83.4375 C 45.628906 -87.375 56.984375 -89.34375 69.796875 -89.34375 C 82.378906 -89.34375 93.414062 -87.40625 102.90625 -83.53125 C 112.40625 -79.65625 119.820312 -74.285156 125.15625 -67.421875 C 130.5 -60.566406 133.171875 -52.535156 133.171875 -43.328125 C 133.171875 -42.316406 133.113281 -41.050781 133 -39.53125 C 132.894531 -38.007812 132.671875 -36.632812 132.328125 -35.40625 L 37.09375 -35.40625 C 38.320312 -31.238281 40.929688 -27.722656 44.921875 -24.859375 C 48.910156 -21.992188 53.800781 -19.832031 59.59375 -18.375 C 65.382812 -16.914062 71.59375 -16.1875 78.21875 -16.1875 C 84.507812 -16.1875 90.601562 -16.691406 96.5 -17.703125 C 102.40625 -18.710938 107.800781 -20.113281 112.6875 -21.90625 C 117.582031 -23.707031 121.546875 -25.734375 124.578125 -27.984375 L 134.359375 -12.46875 C 130.421875 -9.4375 125.390625 -6.738281 119.265625 -4.375 C 113.140625 -2.019531 106.367188 -0.195312 98.953125 1.09375 C 91.535156 2.382812 83.835938 3.03125 75.859375 3.03125 Z M 36.40625 -50.40625 L 101.984375 -50.40625 C 101.648438 -54.5625 99.992188 -58.179688 97.015625 -61.265625 C 94.035156 -64.359375 90.15625 -66.75 85.375 -68.4375 C 80.601562 -70.125 75.238281 -70.96875 69.28125 -70.96875 C 63.4375 -70.96875 58.125 -70.097656 53.34375 -68.359375 C 48.570312 -66.617188 44.695312 -64.203125 41.71875 -61.109375 C 38.738281 -58.015625 36.96875 -54.445312 36.40625 -50.40625 Z M 36.40625 -50.40625 "/></g></g></g></g></g><g clip-path="url(#8107fe5583)"><g transform="matrix(1, 0, 0, 1, 719, 39)"><g clip-path="url(#e703dfa9d7)"><g clip-path="url(#f5dbfa7a95)"><g fill="#000000" fill-opacity="1"><g transform="translate(2.525831, 136.054478)"><g><path d="M 49.203125 42.078125 C 42.003906 42.078125 35.050781 41.039062 28.34375 38.96875 C 21.644531 36.894531 15.703125 33.992188 10.515625 30.265625 C 5.335938 26.546875 1.222656 22.25 -1.828125 17.375 L 8.96875 8.234375 C 12.625 14.578125 18.078125 19.695312 25.328125 23.59375 C 32.585938 27.5 40.425781 29.453125 48.84375 29.453125 C 56.519531 29.453125 63.191406 27.925781 68.859375 24.875 C 74.535156 21.820312 78.957031 17.550781 82.125 12.0625 C 85.300781 6.582031 86.890625 0.125 86.890625 -7.3125 L 86.890625 -17.5625 L 86.703125 -17.5625 C 83.046875 -11.832031 77.925781 -7.289062 71.34375 -3.9375 C 64.757812 -0.582031 58.234375 1.09375 51.765625 1.09375 C 42.742188 1.09375 34.753906 -0.914062 27.796875 -4.9375 C 20.847656 -8.957031 15.421875 -14.597656 11.515625 -21.859375 C 7.617188 -29.117188 5.671875 -37.441406 5.671875 -46.828125 C 5.671875 -56.585938 7.617188 -65.125 11.515625 -72.4375 C 15.421875 -79.75 20.847656 -85.445312 27.796875 -89.53125 C 34.753906 -93.625 42.742188 -95.671875 51.765625 -95.671875 C 58.472656 -95.671875 65.054688 -93.960938 71.515625 -90.546875 C 77.984375 -87.128906 83.109375 -82.738281 86.890625 -77.375 L 87.078125 -77.375 L 88.53125 -92.375 L 100.96875 -92.375 L 100.96875 -7.3125 C 100.96875 2.6875 98.800781 11.375 94.46875 18.75 C 90.144531 26.125 84.109375 31.851562 76.359375 35.9375 C 68.617188 40.03125 59.566406 42.078125 49.203125 42.078125 Z M 53.59375 -11.53125 C 60.300781 -11.53125 66.1875 -13.082031 71.25 -16.1875 C 76.3125 -19.300781 80.273438 -23.507812 83.140625 -28.8125 C 86.003906 -34.113281 87.4375 -40.117188 87.4375 -46.828125 C 87.4375 -53.773438 86.003906 -59.992188 83.140625 -65.484375 C 80.273438 -70.972656 76.3125 -75.300781 71.25 -78.46875 C 66.1875 -81.644531 60.300781 -83.234375 53.59375 -83.234375 C 46.882812 -83.234375 40.96875 -81.707031 35.84375 -78.65625 C 30.726562 -75.601562 26.738281 -71.332031 23.875 -65.84375 C 21.007812 -60.363281 19.578125 -54.023438 19.578125 -46.828125 C 19.578125 -39.878906 21.007812 -33.75 23.875 -28.4375 C 26.738281 -23.132812 30.726562 -18.988281 35.84375 -16 C 40.96875 -13.019531 46.882812 -11.53125 53.59375 -11.53125 Z M 53.59375 -11.53125 "/></g></g></g></g><g fill="#000000" fill-opacity="1"><g transform="translate(112.635991, 136.054478)"><g><path d="M 54.6875 3.65625 C 44.8125 3.65625 36.1875 1.582031 28.8125 -2.5625 C 21.4375 -6.707031 15.703125 -12.5 11.609375 -19.9375 C 7.523438 -27.375 5.484375 -36.09375 5.484375 -46.09375 C 5.484375 -56.21875 7.523438 -65 11.609375 -72.4375 C 15.703125 -79.875 21.4375 -85.664062 28.8125 -89.8125 C 36.1875 -93.957031 44.8125 -96.03125 54.6875 -96.03125 C 64.6875 -96.03125 73.375 -93.957031 80.75 -89.8125 C 88.132812 -85.664062 93.867188 -79.875 97.953125 -72.4375 C 102.035156 -65 104.078125 -56.21875 104.078125 -46.09375 C 104.078125 -36.09375 102.035156 -27.375 97.953125 -19.9375 C 93.867188 -12.5 88.132812 -6.707031 80.75 -2.5625 C 73.375 1.582031 64.6875 3.65625 54.6875 3.65625 Z M 54.6875 -8.96875 C 65.425781 -8.96875 73.992188 -12.347656 80.390625 -19.109375 C 86.796875 -25.878906 90 -34.875 90 -46.09375 C 90 -57.3125 86.796875 -66.304688 80.390625 -73.078125 C 73.992188 -79.847656 65.425781 -83.234375 54.6875 -83.234375 C 43.957031 -83.234375 35.390625 -79.847656 28.984375 -73.078125 C 22.585938 -66.304688 19.390625 -57.3125 19.390625 -46.09375 C 19.390625 -34.875 22.585938 -25.878906 28.984375 -19.109375 C 35.390625 -12.347656 43.957031 -8.96875 54.6875 -8.96875 Z M 54.6875 -8.96875 "/></g></g></g></g></g></g></g></g></svg>